<svg xmlns="http://www.w3.org/2000/svg"  viewBox="0 0 128 128" width="128px" height="128px"><path fill="#fff" d="M104,24h20V14c0-5.5-4.5-10-10-10h0c-5.5,0-10,4.5-10,10V24z"/><path fill="#fff" d="M114,4H24c-5.5,0-10,4.5-10,10v110h80c5.5,0,10-4.5,10-10V14C104,8.5,108.5,4,114,4L114,4z"/><path fill="#71c2ff" d="M84,57H34c-1.7,0-3-1.3-3-3s1.3-3,3-3h50c1.7,0,3,1.3,3,3S85.7,57,84,57z"/><path fill="#71c2ff" d="M71,27H47c-1.7,0-3-1.3-3-3s1.3-3,3-3h24c1.7,0,3,1.3,3,3S72.7,27,71,27z"/><path fill="#fff" d="M84,114v-10H4v10c0,5.5,4.5,10,10,10h80C88.5,124,84,119.5,84,114z"/><path fill="#444b54" d="M114,1H24c-7.2,0-13,5.8-13,13v77c0,1.7,1.3,3,3,3s3-1.3,3-3V14c0-3.9,3.1-7,7-7h79c-1.3,2-2,4.4-2,7v100 c0,3.9-3.1,7-7,7s-7-3.1-7-7v-10c0-1.7-1.3-3-3-3H4c-1.7,0-3,1.3-3,3v10c0,7.2,5.8,13,13,13h80c7.2,0,13-5.8,13-13V14 c0-3.9,3.1-7,7-7s7,3.1,7,7v7h-7c-1.7,0-3,1.3-3,3s1.3,3,3,3h10c1.7,0,3-1.3,3-3V14C127,6.8,121.2,1,114,1z M14,121 c-3.9,0-7-3.1-7-7v-7h74v7c0,2.6,0.8,5,2,7H14z"/><path fill="#71c2ff" d="M69.2,72h-35c-1.7,0-3-1.3-3-3s1.3-3,3-3h35c1.7,0,3,1.3,3,3S70.9,72,69.2,72z"/><circle cx="84" cy="69" r="3" fill="#71c2ff"/></svg>